<?xml version="1.0" encoding="UTF-8"?>
<svg xmlns="http://www.w3.org/2000/svg" xmlns:xlink="http://www.w3.org/1999/xlink" viewBox="0 0 826.16 1070.87">
  <defs>
    <style>
      .cls-1 {
        fill: #fff;
        opacity: .42;
      }

      .cls-2 {
        fill: url(#linear-gradient);
        stroke: #a1d1e2;
        stroke-miterlimit: 10;
        stroke-width: 15px;
      }
    </style>
    <linearGradient id="linear-gradient" x1="413.08" y1="2.07" x2="413.08" y2="1074.76" gradientUnits="userSpaceOnUse">
      <stop offset="0" stop-color="#fff"/>
      <stop offset=".94" stop-color="#4189eb"/>
    </linearGradient>
  </defs>
  <g id="Layer_1" data-name="Layer 1">
    <path class="cls-2" d="m134.72,1063.37h471.25c16.03,0,29.03-13,29.03-29.03v-33.23c0-5.64,1.64-11.15,4.73-15.87l96.57-147.83c4.58-7.01,5.91-15.66,3.65-23.72l-173.86-619.33c-4.23-15.05,4.23-30.75,19.12-35.5l85.86-27.4c15.58-4.97,32.19,3.9,36.72,19.61l53.98,187.29c7.34,25.48,42.19,28.58,53.92,4.81h0c3.12-6.31,3.83-13.54,2.01-20.34L739.16,29.04c-4.2-15.73-20.52-24.93-36.15-20.38l-211.26,61.47c-2.82.82-5.74,1.21-8.68,1.15l-348.68-6.82c-3.24-.06-6.44-.67-9.48-1.79l-78.34-28.9c-18.95-6.99-39.07,7.03-39.07,27.23v13.45c0,9.74,4.89,18.84,13.01,24.21l105.53,69.8c9.93,6.57,14.85,18.54,12.39,30.2L10.09,807.38c-1.65,7.84,0,16.02,4.59,22.59l89.93,128.95c3.81,5.46,5.63,12.07,5.14,18.71l-3.98,54.59c-1.23,16.82,12.09,31.14,28.95,31.14Z"/>
  </g>
  <g id="Layer_2" data-name="Layer 2">
    <path class="cls-1" d="m99,759.87c-30.85-128.99,24.77-268.99,136-549,9.1-22.91,14.83-36.6,21-36,45.17,4.37,52.33,768.22-45,782-39.98,5.66-92.62-115.97-112-197Z"/>
    <path class="cls-1" d="m422,211.49c97.1-114.13,168.35,51.7,180.78,315.41,6.38,135.35-1.26,327.76-19.58,390.51-47.14,161.48-147.06-597.09-161.2-705.93Z"/>
    <path class="cls-1" d="m487.74,909.92c-94.3,115.17-163.51-52.17-175.59-318.3-6.2-136.59,1.23-330.76,19.02-394.09,45.78-162.96,142.84,602.55,156.57,712.39Z"/>
  </g>
</svg>